<svg width="36" height="36" viewBox="0 0 36 36" fill="none" xmlns="http://www.w3.org/2000/svg">
<g id="24 / symbols / github">
<path id="icon" fill-rule="evenodd" clip-rule="evenodd" d="M15.0259 30.0055C15.0336 30.1897 15.0138 30.3695 14.975 30.5515C14.9068 30.8713 14.7751 31.2098 14.5887 31.5224C14.0589 32.4113 13.1588 33.0044 12 33.0044C9.27015 33.0044 8.19875 31.6652 6.85729 28.3115C5.94875 26.0402 5.52015 25.5044 4.5 25.5044L4.5 22.5044C7.22985 22.5044 8.30125 23.8436 9.64271 27.1973C10.5512 29.4686 10.9799 30.0044 12 30.0044C12 29.5691 11.994 29.1836 11.9815 28.6615C11.9521 27.4378 11.9487 27.188 12.0021 26.8608C12.0234 26.1467 12.2078 25.64 12.5775 25.1371C9.22979 24.4083 6.97188 22.9033 5.67596 20.4621L5.19051 19.3205C4.71757 17.9613 4.5 16.4213 4.5 14.6427C4.5 12.5944 5.12452 10.7629 6.29103 9.232C5.92714 7.77679 5.97698 5.99883 6.78046 3.9909L7.04301 3.33479L7.7161 3.11949C7.80622 3.09066 7.91578 3.06463 8.04448 3.04443C9.35514 2.83872 11.2202 3.32952 13.6583 4.89127C15.0957 4.55808 16.6093 4.38986 18.1332 4.38986C19.4949 4.38986 20.8492 4.52715 22.1424 4.79781C24.5146 3.31231 26.3284 2.8464 27.6038 3.04469C27.731 3.06447 27.8394 3.09001 27.9288 3.11835L28.6061 3.33313L28.8689 3.99324C29.5718 5.75835 29.6925 7.38505 29.4367 8.80843C30.7777 10.4175 31.5 12.3957 31.5 14.6427C31.5 16.5371 31.3643 17.9616 30.9741 19.3474L30.5624 20.4775C29.4844 22.9161 27.1072 24.438 23.4413 25.1629C23.8223 25.6905 24 26.226 24 27.0044V28.5044C24 29.2313 24 29.2537 23.9983 30.0044C24.0018 30.0583 24.0063 30.0847 24.0112 30.1012C24.01 30.1016 24 33.0044 24 33.0044C22.7223 33.0044 21.7723 32.3813 21.3051 31.3984C21.0628 30.8888 20.9904 30.4022 21 29.9831V27.0044C21 26.8786 20.9956 26.8713 20.6893 26.5651C19.8706 25.7463 19.5 25.1286 19.5 24.0044V22.6475L20.8501 22.5119C24.869 22.1083 27.0548 20.9922 27.7795 19.3618L28.1182 18.4359C28.3877 17.4678 28.5 16.2889 28.5 14.6427C28.5 12.8936 27.8894 11.4487 26.7345 10.2943L26.0997 9.65976L26.3588 8.80044C26.589 8.03702 26.6437 7.13368 26.4002 6.10334C26.3597 6.1136 26.3176 6.12477 26.274 6.13692C25.4708 6.36053 24.468 6.84032 23.2597 7.64804L22.7085 8.01644L22.0651 7.85689C20.8206 7.54829 19.4833 7.38986 18.1332 7.38986C16.6318 7.38986 15.1477 7.58088 13.7767 7.95465L13.1076 8.13705L12.5352 7.74549C11.2854 6.89051 10.2472 6.38206 9.41464 6.14455C9.35518 6.12758 9.29856 6.11241 9.24475 6.09888C8.95428 7.29136 9.06917 8.27108 9.36335 9.00624L9.71607 9.88772L9.07033 10.5837C8.04135 11.6928 7.5 13.0425 7.5 14.6427C7.5 16.1079 7.67152 17.3219 7.98582 18.2364L8.37835 19.1656C9.35961 21.0069 11.4438 22.1146 15.1599 22.5129L16.5 22.6566V24.0044C16.5 25.1286 16.1294 25.7463 15.3107 26.5651C15.0044 26.8713 15 26.8786 15 27.0044L14.9741 27.2817C14.957 27.3726 14.957 27.6075 14.9806 28.5894C14.9915 29.0411 14.9977 29.3985 14.9995 29.7721C15.0174 29.8494 15.0201 29.8993 15.0259 30.0055Z" fill="black"/>
</g>
</svg>
