<svg width="36" height="36" viewBox="0 0 36 36" fill="none" xmlns="http://www.w3.org/2000/svg">
<g id="24 / maps / pin">
<path id="icon" fill-rule="evenodd" clip-rule="evenodd" d="M18 34.9914L18.9866 34.1299C27.283 26.8856 31.5 20.5601 31.5 15C31.5 7.126 25.3544 1.5 18 1.5C10.6456 1.5 4.5 7.126 4.5 15C4.5 20.5601 8.71696 26.8856 17.0134 34.1299L18 34.9914ZM18 30.9951C10.9599 24.6503 7.5 19.2738 7.5 15C7.5 8.8449 12.2462 4.5 18 4.5C23.7538 4.5 28.5 8.8449 28.5 15C28.5 19.2738 25.0401 24.6503 18 30.9951ZM18 7.5C22.1421 7.5 25.5 10.8579 25.5 15C25.5 19.1421 22.1421 22.5 18 22.5C13.8579 22.5 10.5 19.1421 10.5 15C10.5 10.8579 13.8579 7.5 18 7.5ZM13.5 15C13.5 12.5147 15.5147 10.5 18 10.5C20.4853 10.5 22.5 12.5147 22.5 15C22.5 17.4853 20.4853 19.5 18 19.5C15.5147 19.5 13.5 17.4853 13.5 15Z" fill="black"/>
</g>
</svg>
